<?xml version="1.0" standalone="no"?>
<!DOCTYPE svg PUBLIC "-//W3C//DTD SVG 20010904//EN"
 "http://www.w3.org/TR/2001/REC-SVG-20010904/DTD/svg10.dtd">
<svg version="1.0" xmlns="http://www.w3.org/2000/svg"
 width="1300.000000pt" height="681.000000pt" viewBox="0 0 1300.000000 681.000000"
 preserveAspectRatio="xMidYMid meet">
<metadata>
Created by potrace 1.15, written by Peter Selinger 2001-2017
</metadata>
<g transform="translate(0.000000,681.000000) scale(0.100000,-0.100000)"
fill="#000000" stroke="none">
<path d="M6907 5935 c-5 -49 -12 -112 -18 -138 -5 -26 -9 -64 -9 -82 0 -29 -4
-35 -22 -36 -22 -1 -22 -1 -3 -7 11 -4 20 -14 20 -22 -13 -317 -17 -359 -39
-363 -20 -4 -20 -4 2 -6 22 -1 22 -1 22 -186 0 -182 0 -186 -22 -194 l-22 -8
23 -6 c22 -5 22 -7 20 -181 -1 -96 -5 -179 -8 -184 -3 -5 -13 -12 -21 -15 -12
-4 -11 -6 3 -6 18 -1 17 2 19 -135 0 -30 -3 -59 -6 -65 -4 -6 -3 -11 3 -11 6
0 8 -7 4 -16 -5 -14 -3 -15 15 -5 18 10 21 9 16 -4 -4 -9 -15 -20 -25 -26 -11
-5 -17 -14 -13 -20 3 -5 0 -17 -8 -26 -12 -15 -11 -15 12 -3 21 10 23 10 13
-1 -7 -7 -13 -26 -13 -41 0 -22 -5 -28 -22 -29 l-23 0 24 -12 24 -11 -7 -151
c-4 -82 -9 -165 -13 -182 l-5 -33 -77 -2 -76 -2 75 -5 74 -6 4 -37 c2 -23 -1
-38 -7 -38 -22 0 -10 -47 19 -75 l30 -29 0 25 c0 13 2 74 5 134 2 61 7 196 10
300 7 234 13 386 20 490 10 148 35 1058 35 1270 0 131 -4 205 -9 195 -7 -10
-11 -1 -13 30 -3 34 -5 23 -11 -45z"/>
<path d="M7044 5675 c4 -154 15 -444 26 -645 11 -201 21 -402 22 -447 1 -46 4
-83 7 -83 3 0 17 12 32 26 24 23 26 30 18 57 -5 18 -9 92 -9 165 0 128 1 133
23 142 l22 9 -22 0 c-23 1 -23 2 -24 159 0 86 -2 165 -4 176 -5 26 5 46 24 47
12 0 11 2 -5 9 -18 7 -21 22 -32 176 -15 210 -15 202 6 207 15 4 15 5 0 6 -12
1 -18 14 -23 49 -14 107 -35 197 -51 211 -15 15 -16 -4 -10 -264z"/>
<path d="M1930 5381 c-313 -49 -612 -197 -814 -406 -164 -169 -295 -403 -370
-663 -94 -323 -94 -732 0 -1037 25 -81 85 -238 110 -287 8 -15 14 -29 13 -30
-1 -2 67 -116 164 -273 6 -11 31 -42 54 -68 24 -27 41 -53 38 -57 -3 -4 4 -10
15 -13 11 -3 23 -13 27 -24 3 -10 64 -76 135 -147 70 -71 128 -133 128 -138 0
-4 6 -8 13 -8 20 0 88 -61 81 -72 -4 -7 -2 -8 4 -4 6 3 57 -32 114 -80 57 -47
120 -98 140 -113 23 -16 40 -38 44 -56 5 -24 8 -26 13 -12 5 15 21 6 101 -57
52 -41 112 -87 133 -103 136 -102 147 -112 148 -146 l1 -32 7 28 6 29 30 -23
c17 -13 32 -26 35 -29 3 -3 56 -44 118 -90 91 -68 110 -86 95 -91 -13 -6 -10
-8 13 -8 48 -1 75 -29 81 -81 7 -59 13 -64 13 -11 l0 41 113 -81 c61 -44 123
-89 137 -100 14 -10 67 -46 119 -81 l94 -63 -34 -6 c-31 -6 -30 -6 14 -8 33
-1 60 -9 89 -29 36 -24 51 -27 117 -27 42 1 86 5 98 9 18 6 22 4 26 -16 4 -20
4 -19 6 6 2 44 25 55 126 58 l90 2 -73 3 -72 4 29 24 c16 14 31 25 35 25 8 0
205 140 211 151 11 17 35 9 36 -13 1 -16 4 -13 8 10 5 27 23 45 106 107 l100
75 85 2 85 2 -75 5 -75 6 60 44 c33 25 62 48 63 53 6 12 30 9 35 -4 3 -7 6 -3
6 9 1 12 13 30 27 40 14 10 55 42 91 70 36 29 68 53 72 53 3 0 20 14 38 30 18
17 36 30 41 30 5 0 19 11 32 25 13 14 32 25 42 25 10 0 17 3 17 8 -3 20 3 31
21 37 11 4 37 22 58 41 20 19 62 51 92 71 30 21 60 43 65 49 16 17 163 134
169 134 3 0 7 -51 9 -113 l3 -112 2 122 c2 120 2 122 30 143 54 41 148 127
247 222 l100 97 5 -122 6 -122 2 133 2 134 31 32 c29 32 34 33 112 35 108 3
113 11 7 11 l-82 0 34 43 c19 23 56 73 82 110 36 50 53 66 65 62 34 -14 102
-22 107 -14 12 19 24 7 25 -23 1 -34 3 -31 13 13 4 18 16 31 38 39 48 19 159
85 186 110 12 12 39 27 60 35 28 10 31 14 15 14 -13 1 -23 5 -23 10 0 11 81
91 93 91 4 0 7 -17 8 -37 l1 -38 9 32 c9 30 12 32 29 21 11 -7 20 -16 20 -20
0 -4 12 -19 27 -33 l28 -25 -30 -1 -30 -1 34 -11 c19 -6 43 -20 55 -32 31 -31
84 -142 97 -204 6 -30 18 -69 25 -87 18 -44 18 -54 -3 -54 -14 -1 39 -30 53
-30 12 0 -6 311 -22 389 -5 23 -8 23 -66 18 -64 -6 -103 5 -113 32 -7 18 -27
107 -55 246 -10 50 -25 108 -33 130 l-14 40 -16 -38 c-17 -39 -63 -187 -99
-315 -13 -47 -27 -76 -40 -83 -14 -7 -52 -7 -126 0 -59 6 -122 12 -140 14
l-32 2 20 33 c15 24 24 31 33 25 16 -13 197 11 207 27 4 7 31 85 60 174 45
141 61 184 78 219 12 25 -45 -23 -135 -115 -55 -57 -123 -123 -150 -148 l-48
-45 40 44 c22 24 97 100 168 170 102 101 130 134 138 166 6 22 12 47 15 55 8
30 -61 11 -105 -29 -42 -37 -88 -113 -93 -153 -5 -36 -17 -48 -49 -48 -16 0
-29 2 -29 4 0 3 9 58 19 123 11 65 22 148 26 185 l6 67 57 4 57 3 -56 2 -56 2
-6 133 c-4 72 -9 158 -13 189 l-7 57 39 4 39 4 -40 1 -40 2 -27 113 c-16 63
-37 140 -49 173 -11 32 -23 66 -25 76 -4 10 1 18 13 21 15 4 14 5 -4 6 -16 1
-23 7 -23 21 0 11 -4 20 -8 20 -4 0 -18 21 -31 48 -57 119 -119 212 -190 286
-42 43 -70 76 -63 72 25 -14 11 11 -26 47 -47 46 -67 49 -26 5 16 -18 5 -11
-23 16 -29 27 -51 52 -50 56 3 9 -47 49 -108 87 -136 85 -285 147 -463 193
-66 17 -249 40 -323 40 -233 0 -496 -78 -699 -208 -244 -156 -338 -197 -450
-196 -79 1 -172 30 -248 77 -20 13 -44 27 -52 30 -8 4 -34 20 -57 35 -240 156
-392 219 -597 247 -139 19 -251 18 -396 -4z m-95 -226 c44 -13 101 -38 126
-55 53 -34 113 -119 122 -170 4 -19 9 -48 12 -65 3 -16 0 -52 -7 -78 l-12 -48
374 -377 375 -377 -370 368 c-204 202 -373 367 -376 367 -4 0 -17 -28 -29 -62
-63 -174 -189 -327 -324 -392 -66 -32 -187 -63 -204 -52 -4 2 -29 7 -57 10
-201 22 -354 190 -357 390 -2 134 15 202 70 287 39 61 57 84 69 92 7 4 18 13
25 20 7 8 25 21 40 31 15 10 25 22 22 27 -3 5 3 12 13 15 10 3 33 13 52 22 19
9 37 17 40 18 3 0 15 5 26 9 113 50 250 57 370 20z m2366 2 c148 -32 279 -124
311 -219 15 -41 15 -53 2 -101 -8 -30 -21 -70 -29 -90 -16 -39 -96 -149 -154
-212 -50 -54 -196 -185 -206 -185 -5 0 -18 -8 -29 -18 -12 -10 -55 -33 -96
-52 -67 -30 -85 -33 -170 -34 -92 0 -97 1 -168 39 -40 21 -88 56 -107 77 -55
59 -111 199 -93 232 5 9 4 17 -3 22 -8 5 -9 3 -4 -7 5 -8 4 -11 0 -6 -5 4 -9
16 -10 27 -1 15 2 17 17 9 17 -9 18 -8 7 9 -10 15 -10 32 0 78 17 79 19 87 52
159 20 44 78 112 135 158 152 123 327 160 545 114z m1229 -359 c8 -9 31 -40
50 -68 19 -28 52 -72 72 -99 79 -105 143 -260 168 -411 36 -210 0 -601 -81
-888 -31 -108 -101 -284 -125 -312 -7 -8 -16 -27 -19 -42 -4 -16 -11 -28 -16
-28 -5 0 -9 -7 -9 -16 0 -8 -4 -12 -10 -9 -5 3 -10 0 -10 -7 0 -30 -117 -181
-281 -362 -25 -28 -52 -61 -58 -73 -6 -13 -18 -23 -25 -23 -7 0 -21 -9 -31
-20 -10 -11 -22 -17 -27 -14 -6 4 -8 -1 -4 -12 4 -14 -12 -36 -60 -84 -58 -57
-67 -63 -84 -52 -26 16 -31 15 -24 -3 4 -11 2 -13 -9 -9 -8 3 -18 1 -22 -5 -3
-6 1 -11 9 -11 41 0 18 -49 -30 -64 -11 -3 -34 -20 -52 -37 -30 -30 -31 -30
-58 -13 -26 18 -27 18 -20 -4 6 -17 4 -21 -8 -16 -10 4 -16 1 -16 -7 0 -10 -2
-11 -8 -2 -4 6 -7 -9 -7 -33 0 -38 -5 -49 -42 -86 -47 -46 -64 -44 -44 5 22
54 24 74 5 40 -23 -40 -57 -78 -79 -90 -15 -9 -15 -13 -4 -31 19 -30 -1 -50
-37 -36 -23 8 -31 4 -61 -23 -29 -28 -32 -35 -23 -54 11 -19 10 -20 -9 -10
-24 13 -54 14 -47 2 6 -8 -33 -39 -64 -52 -11 -5 -10 -8 8 -13 28 -9 28 -21 0
-44 -11 -9 -29 -25 -40 -35 -22 -21 -38 -15 -39 16 0 15 -2 17 -6 7 -9 -23
-42 -52 -52 -45 -12 7 -25 -51 -15 -67 6 -9 3 -9 -9 1 -9 7 -17 21 -17 29 0
13 -3 12 -14 -4 -8 -12 -37 -29 -63 -39 -26 -10 -53 -21 -58 -26 -6 -4 -16 -5
-22 -1 -12 8 4 67 25 93 6 8 32 41 58 74 96 123 366 365 407 365 5 0 36 23 70
51 33 27 73 53 88 56 16 3 26 9 23 14 -3 5 2 6 10 3 18 -7 21 7 5 23 -8 8 4
26 43 66 56 59 91 78 129 71 13 -2 18 -2 12 2 -22 10 -14 22 10 16 21 -5 21
-5 5 12 -10 10 -18 23 -18 30 0 7 29 41 64 74 50 49 71 62 95 62 31 0 42 14
19 23 -8 3 -6 6 5 6 11 1 17 9 17 24 0 16 23 46 70 91 39 37 67 73 63 79 -4 6
0 8 10 4 11 -4 14 -2 11 8 -7 19 13 55 31 55 18 0 20 17 4 22 -8 3 -3 18 13
43 101 165 158 354 159 530 1 89 -2 109 -24 156 -62 134 -76 178 -86 269 -35
295 -43 364 -56 455 -8 55 -22 125 -30 155 -8 30 -15 77 -15 103 0 61 41 153
83 187 51 41 150 99 159 94 4 -3 8 0 8 7 0 12 30 -9 60 -43z m-4321 -814 c30
-15 53 -36 60 -52 23 -55 41 -186 51 -372 11 -211 10 -201 52 -350 66 -234
132 -371 248 -510 67 -81 138 -191 155 -241 13 -37 57 -112 75 -129 3 -3 32
-36 63 -74 32 -38 77 -85 100 -105 68 -60 176 -162 246 -233 37 -38 72 -68 79
-68 7 0 12 -7 12 -16 0 -12 -3 -14 -13 -6 -7 6 -24 8 -37 5 -16 -4 -21 -3 -16
5 4 7 1 12 -8 12 -12 0 -155 105 -176 129 -3 3 -27 24 -55 46 -66 52 -162 133
-197 167 -16 15 -60 55 -100 90 -39 35 -83 74 -97 88 -115 110 -283 250 -301
250 -6 0 -8 5 -5 10 3 6 0 10 -7 11 -11 1 -116 112 -153 160 -89 119 -157 242
-190 344 -11 33 -22 65 -26 70 -3 6 -15 44 -25 85 -15 59 -19 111 -19 240 0
153 2 172 29 260 32 107 57 143 124 182 60 33 72 34 131 2z"/>
<path d="M6987 4805 c-4 -121 -9 -269 -11 -328 l-3 -109 29 29 29 29 -12 245
c-17 364 -24 395 -32 134z"/>
<path d="M7120 4505 c-22 -24 -23 -26 -16 -187 4 -90 11 -226 16 -303 10 -147
16 -260 25 -485 13 -307 14 -308 38 -294 7 4 9 3 4 -1 -8 -10 22 -47 34 -40 4
3 -4 26 -17 51 -13 25 -19 42 -13 39 7 -5 9 1 7 16 -2 17 3 25 22 30 l25 7
-27 1 c-29 1 -39 26 -37 91 1 19 -2 90 -6 157 -7 123 -7 123 17 132 l23 10
-22 0 c-26 1 -24 -17 -27 235 l-1 140 25 7 25 7 -27 1 c-25 1 -26 4 -30 64 -2
34 -5 119 -7 189 -2 125 -2 127 21 131 20 4 19 4 -5 6 -16 0 -26 5 -22 11 11
18 -1 11 -25 -15z"/>
<path d="M10290 4416 c-22 -60 -50 -193 -50 -242 0 -49 -2 -54 -22 -55 -22 0
-22 -1 -3 -8 16 -6 19 -16 17 -44 -4 -44 2 -46 42 -9 23 21 22 17 -7 -16 -20
-23 -37 -51 -37 -62 0 -11 16 -37 35 -58 l34 -37 2 90 c0 50 2 101 4 115 1 14
6 95 10 181 6 113 5 158 -4 163 -6 4 -15 -3 -21 -18z"/>
<path d="M6998 4381 c-27 -31 -28 -37 -29 -144 0 -62 -2 -123 -4 -137 -1 -14
-6 -164 -10 -335 l-6 -310 61 -60 62 -60 -5 120 c-4 66 -11 280 -17 475 -7
195 -15 384 -18 419 l-7 65 -27 -33z"/>
<path d="M8468 4200 c-5 -53 -25 -79 -63 -80 -18 -1 -18 -2 3 -11 13 -5 20
-14 17 -20 -16 -24 -55 -272 -55 -344 0 -9 -9 -15 -22 -16 -17 -1 -19 -2 -5
-6 18 -5 21 -29 11 -81 -6 -30 -30 -63 -58 -79 -12 -7 -13 -34 -5 -173 9 -161
46 -540 53 -547 7 -8 40 291 71 652 8 99 20 209 25 245 15 108 45 510 37 510
-3 0 -7 -23 -9 -50z"/>
<path d="M10440 4215 l-23 -25 16 -226 c10 -136 21 -232 28 -241 7 -8 26 -23
42 -35 l29 -21 -11 22 c-10 18 -9 22 10 30 22 7 22 8 2 13 -19 5 -20 16 -27
184 -7 163 -6 179 10 191 16 12 16 13 1 13 -12 0 -18 13 -23 50 -9 65 -24 77
-54 45z"/>
<path d="M8568 4130 c-5 -15 11 -231 38 -510 13 -140 29 -327 34 -415 12 -176
30 -524 30 -567 0 -16 4 -28 9 -28 4 0 11 48 15 108 21 342 13 325 137 332
l83 5 8 35 c17 85 58 382 58 426 l0 48 -21 -20 c-20 -21 -58 -137 -59 -181 0
-15 -6 -23 -17 -23 -15 0 -18 -11 -20 -62 -3 -69 -23 -107 -65 -122 -69 -24
-163 147 -95 174 22 9 21 9 -4 9 l-26 1 -8 182 c-7 168 -6 183 11 195 16 12
16 13 1 13 -15 0 -21 11 -18 32 3 21 -30 289 -39 312 -8 23 -7 28 13 36 20 8
19 9 -10 9 -18 1 -33 6 -33 11 0 13 -17 13 -22 0z"/>
<path d="M9652 3973 c-1 -18 -13 -54 -26 -80 -25 -49 -49 -122 -49 -148 0 -8
-9 -15 -21 -15 -19 0 -19 -1 -2 -13 17 -12 17 -20 1 -157 -9 -80 -20 -157 -25
-172 -4 -14 -5 -30 -2 -34 4 -4 1 -4 -5 0 -7 4 -13 2 -13 -5 0 -8 -16 -9 -56
-4 -56 7 -57 6 -51 -17 3 -12 9 -42 13 -65 4 -24 10 -43 13 -43 4 0 45 39 92
88 l85 87 28 260 c15 143 26 280 24 305 -4 34 -5 37 -6 13z"/>
<path d="M11090 3879 c0 -41 9 -150 20 -244 11 -93 29 -258 40 -365 11 -107
22 -200 24 -205 4 -10 540 -15 550 -5 7 8 34 177 41 260 l6 75 -25 -27 c-14
-16 -35 -29 -48 -29 -17 -1 -18 -3 -5 -6 25 -6 21 -25 -18 -103 -38 -76 -55
-93 -56 -58 0 19 -3 17 -13 -11 -7 -19 -21 -38 -32 -42 -10 -4 -67 -8 -127 -8
-98 -1 -111 1 -145 24 -51 33 -69 69 -73 140 -3 37 -9 62 -17 65 -9 4 -15 33
-17 85 -3 44 -9 125 -14 180 -8 87 -7 102 7 113 14 11 14 12 0 12 -17 0 -22
10 -33 70 -11 60 -35 128 -51 140 -12 11 -14 2 -14 -61z"/>
<path d="M10226 3930 c-2 -8 -7 -44 -10 -80 -3 -36 -7 -74 -10 -85 -2 -11 -5
-23 -5 -27 -1 -5 -17 -8 -36 -8 -29 0 -39 6 -53 30 -9 16 -23 32 -31 35 -19 7
-11 -138 23 -420 31 -267 62 -538 77 -685 11 -110 14 -128 23 -119 8 8 26 233
41 514 9 154 24 395 33 535 l18 255 -32 35 c-25 26 -34 31 -38 20z"/>
<path d="M10957 3905 c-9 -19 -22 -64 -29 -101 -9 -51 -17 -68 -32 -74 -19 -8
-19 -9 -2 -9 18 -1 18 -8 12 -118 -4 -65 -12 -138 -17 -163 -5 -25 -11 -56
-13 -70 -2 -14 -9 -24 -15 -22 -20 4 -12 -11 32 -55 45 -46 53 -50 55 -30 0 6
7 95 16 197 23 278 30 466 19 473 -5 3 -17 -9 -26 -28z"/>
<path d="M9753 3904 c-7 -18 6 -324 14 -337 6 -10 113 91 113 106 0 5 -6 4
-13 -2 -10 -8 -14 -7 -14 4 0 8 5 15 11 16 6 0 2 4 -9 8 -17 7 -17 8 8 13 24
5 27 3 21 -16 -6 -17 1 -15 37 15 42 35 64 79 39 79 -7 0 -10 -7 -6 -15 3 -8
0 -14 -7 -12 -7 1 -11 -4 -9 -12 2 -8 -3 -11 -13 -8 -8 4 -15 2 -15 -4 0 -6
-16 -9 -37 -7 -34 3 -38 6 -45 41 -8 38 -55 147 -64 147 -3 0 -7 -7 -11 -16z"/>
<path d="M10356 3783 c-3 -16 -8 -91 -11 -168 -6 -154 -23 -453 -30 -555 -3
-36 -9 -132 -15 -215 -6 -82 -17 -221 -25 -308 -8 -86 -15 -202 -15 -257 0
-84 2 -98 15 -94 8 3 24 21 36 40 23 38 39 42 60 17 18 -22 25 -73 10 -73 -6
0 -11 -4 -11 -10 0 -5 6 -10 14 -10 11 0 16 -25 21 -107 4 -60 11 -142 15
-183 4 -50 3 -78 -4 -83 -8 -6 -7 -10 2 -14 8 -3 12 -40 14 -126 0 -67 3 -106
5 -87 6 49 19 58 27 17 3 -18 13 -42 21 -53 13 -17 14 -6 15 101 0 66 -5 183
-10 260 -5 77 -16 268 -25 425 -8 157 -22 386 -30 510 -8 124 -21 353 -30 510
-21 401 -27 480 -36 485 -4 3 -10 -7 -13 -22z"/>
<path d="M7690 3747 c0 -11 -8 -17 -22 -18 -17 -1 -19 -2 -5 -6 22 -6 21 -10
-3 -60 -23 -48 -37 -109 -51 -212 -12 -100 -16 -111 -42 -111 -20 -1 -20 -2
-4 -11 9 -5 17 -16 17 -24 0 -26 -41 -110 -68 -138 -29 -30 -114 -60 -153 -53
-13 3 -30 5 -36 5 -8 1 -13 16 -14 39 l-1 37 -9 -40 c-9 -36 -7 -42 18 -67 27
-26 35 -28 145 -34 l116 -7 11 39 c5 22 15 71 21 109 7 39 20 104 30 145 23
93 60 285 64 332 2 19 6 39 9 44 3 5 -1 18 -9 29 -12 16 -14 17 -14 2z"/>
<path d="M8511 3748 c-1 -9 -8 -74 -16 -145 -8 -70 -24 -227 -35 -348 -11
-121 -27 -276 -34 -345 -21 -190 -29 -315 -21 -339 5 -17 14 -21 50 -21 24 0
47 5 50 10 3 6 20 10 36 10 18 0 28 -4 24 -10 -3 -5 -1 -10 4 -10 6 0 11 5 11
10 0 6 6 10 14 10 10 0 13 10 10 38 -2 20 -8 125 -14 232 -19 390 -73 1007
-79 908z"/>
<path d="M9866 3641 l-99 -99 7 -129 c4 -70 11 -186 16 -258 6 -71 12 -159 15
-195 2 -36 11 -222 20 -415 8 -192 20 -433 25 -535 6 -102 10 -194 10 -205 1
-17 2 -17 10 -5 4 9 16 213 25 455 17 460 27 683 45 950 30 445 35 535 30 535
-3 0 -50 -45 -104 -99z"/>
<path d="M7812 3643 c5 -49 24 -177 43 -286 19 -109 42 -284 51 -390 9 -106
18 -194 20 -196 9 -10 13 10 22 123 13 148 15 151 117 149 61 -1 77 1 84 15
12 23 43 345 39 402 l-3 45 -26 -50 c-15 -27 -30 -65 -34 -82 -5 -25 -12 -33
-29 -33 -19 0 -21 -4 -18 -38 6 -60 -15 -121 -44 -132 -17 -7 -32 -6 -44 0
-26 14 -70 73 -70 94 0 10 -5 26 -10 36 -9 17 -6 21 17 27 l28 7 -25 6 c-24 6
-25 11 -36 117 -13 119 -25 168 -55 221 -19 33 -19 33 4 42 20 8 20 9 -8 9
l-31 1 8 -87z"/>
<path d="M10455 3689 c2 -19 6 -95 10 -169 3 -74 12 -234 20 -355 8 -121 21
-362 30 -535 21 -428 27 -505 36 -460 4 19 15 206 24 415 9 209 25 461 36 560
26 233 27 371 4 394 -15 15 -16 15 -9 -4 4 -11 4 -17 -1 -13 -4 4 -15 2 -23
-5 -13 -10 -15 -9 -10 11 5 18 4 21 -7 12 -9 -8 -15 -4 -23 17 -5 16 -13 37
-18 48 -4 11 -6 27 -5 35 1 9 -14 31 -33 49 l-35 34 4 -34z"/>
<path d="M6673 3664 c-7 -19 6 -208 42 -624 13 -151 28 -367 35 -480 6 -113
15 -270 20 -350 33 -512 33 -511 44 -499 4 4 27 694 48 1423 l11 389 -36 34
c-20 18 -42 33 -49 33 -9 0 -8 -3 2 -10 18 -11 8 -23 -13 -14 -24 9 -49 51
-35 60 7 5 8 3 3 -6 -5 -9 -4 -11 4 -6 9 6 9 11 1 22 -7 7 -15 13 -18 12 -21
-2 -32 4 -32 17 0 20 -19 19 -27 -1z"/>
<path d="M6521 3660 c-11 -89 -22 -169 -32 -237 -11 -73 -15 -83 -33 -84 -19
0 -19 -1 3 -10 17 -7 21 -14 16 -27 -4 -9 -11 -33 -16 -52 -9 -38 -41 -70 -69
-70 -30 0 -79 48 -90 88 -13 50 -13 51 13 62 20 8 20 9 -8 9 -23 1 -31 6 -32
20 -3 40 -64 191 -78 191 -7 0 4 -117 15 -144 5 -14 26 -92 46 -173 20 -82 40
-155 45 -164 6 -11 29 -18 76 -22 37 -4 73 -13 81 -21 8 -7 18 -46 22 -85 15
-134 24 -103 45 149 8 96 21 236 30 310 8 74 15 166 15 204 0 67 0 69 -19 52
-18 -17 -19 -17 -24 1 -3 13 -5 14 -6 3z"/>
<path d="M9087 3539 c-6 -23 13 -195 37 -324 8 -44 17 -97 21 -117 10 -62 72
-74 94 -20 13 32 71 242 71 258 0 7 -9 14 -19 17 -12 3 -21 16 -24 33 -3 25
-4 23 -6 -8 -1 -34 -4 -38 -29 -38 -31 0 -48 23 -81 111 -12 29 -29 67 -40 82
-18 28 -18 28 -24 6z"/>
<path d="M11037 3490 c-3 -30 -9 -107 -12 -170 -4 -63 -8 -127 -10 -143 -2
-15 0 -25 4 -22 5 2 21 -9 36 -25 16 -17 32 -30 35 -30 6 0 2 58 -21 280 -16
155 -24 181 -32 110z"/>
<path d="M10738 3504 c-12 -18 3 -182 33 -369 10 -66 28 -221 39 -345 11 -124
27 -286 35 -360 8 -74 15 -141 15 -149 0 -8 2 -12 5 -9 8 7 31 271 50 563 9
132 19 275 23 317 l8 78 -41 39 c-22 21 -46 37 -53 36 -7 -2 -8 -1 -2 2 7 3 3
14 -11 29 -12 13 -27 21 -33 17 -6 -3 -8 -2 -3 2 4 5 -10 27 -30 49 l-38 41
35 -30 c19 -17 41 -37 48 -45 16 -19 49 -21 49 -4 0 17 -17 18 -18 2 -1 -7 -7
21 -14 62 l-12 75 -2 -52 c-1 -43 -4 -51 -16 -46 -9 3 -13 8 -10 11 2 3 -6 19
-18 36 -13 17 -26 38 -29 46 -2 8 -7 10 -10 4z"/>
<path d="M7742 3465 c-16 -59 -70 -360 -78 -433 -5 -45 -13 -69 -27 -83 -21
-19 -21 -19 15 -19 34 0 37 -3 41 -32 l4 -33 1 36 c2 33 4 35 31 31 38 -5 48
-32 56 -147 3 -49 8 -120 11 -157 5 -62 4 -68 -12 -68 -16 -1 -14 -3 6 -15 14
-8 22 -14 19 -15 -10 0 19 -128 37 -166 30 -63 37 -41 31 94 -11 207 -36 476
-62 652 -13 91 -29 203 -35 250 -5 47 -14 99 -19 115 l-8 30 -11 -40z"/>
<path d="M9686 3462 c-3 -6 -13 -84 -21 -174 -9 -90 -20 -199 -26 -243 -27
-215 -39 -337 -39 -407 0 -45 -4 -78 -10 -78 -5 0 -10 -4 -10 -10 0 -5 16 -10
35 -10 l35 0 1 -57 c1 -59 3 -58 14 12 7 40 7 40 20 15 19 -37 43 -332 27
-338 -9 -3 -10 -8 -3 -15 12 -15 18 -358 7 -376 -5 -8 -4 -16 1 -20 15 -9 27
-381 13 -381 -7 0 -6 -6 3 -14 8 -8 18 -58 25 -124 7 -61 19 -123 27 -139 8
-15 15 -34 15 -40 0 -7 5 -13 10 -13 15 0 12 266 -5 540 -19 297 -59 1048 -81
1505 -15 330 -22 393 -38 367z"/>
<path d="M6948 3434 c-3 -5 -6 -70 -7 -144 -4 -287 -40 -1293 -55 -1530 -3
-41 -8 -234 -12 -427 l-7 -353 25 0 25 0 6 128 c11 213 18 262 36 262 13 0 13
2 3 9 -19 11 -17 371 1 384 9 7 9 10 0 14 -10 3 -13 50 -13 185 0 160 2 182
18 194 15 12 15 13 1 14 -13 0 -15 10 -13 53 2 28 6 97 9 152 3 55 7 111 9
125 2 14 5 29 5 33 1 5 16 7 34 5 17 -2 30 -6 27 -9 -3 -3 0 -12 6 -20 6 -8
14 -27 18 -43 4 -16 18 -43 32 -61 13 -17 24 -37 24 -43 0 -7 5 -12 10 -12 16
0 12 144 -9 333 -19 162 -37 401 -44 565 l-3 72 -61 61 c-33 34 -63 57 -65 53z"/>
<path d="M11875 3330 c3 -41 16 -120 28 -175 l22 -100 155 4 c85 2 157 5 158
6 2 2 1 13 -3 24 -6 18 -14 21 -71 21 -44 0 -78 6 -109 21 -42 20 -45 24 -46
63 -1 22 -4 31 -6 19 -7 -37 -19 -27 -47 39 -26 59 -26 63 -10 75 17 12 16 13
-4 13 -21 0 -27 5 -58 45 -14 18 -15 14 -9 -55z"/>
<path d="M10016 3324 c-7 -79 -22 -386 -31 -614 -3 -85 -13 -290 -21 -455 -47
-978 -53 -1210 -32 -1203 17 6 36 81 48 185 5 51 10 97 10 102 0 5 7 17 16 25
9 9 11 16 4 16 -8 0 -10 54 -8 190 2 104 5 190 8 190 3 0 6 84 6 186 1 121 6
190 13 197 8 8 12 -16 13 -88 l2 -100 5 100 6 100 51 -1 51 -2 2 52 c1 51 -18
252 -63 641 -14 116 -32 280 -42 365 -9 85 -20 161 -24 169 -4 8 -10 -15 -14
-55z"/>
<path d="M9512 3287 l-83 -84 45 -179 c24 -98 49 -190 54 -204 8 -23 10 -23
15 -5 3 11 8 52 12 90 3 39 15 154 26 258 11 103 19 192 17 197 -2 6 -41 -27
-86 -73z"/>
<path d="M9027 3293 c-4 -7 -25 -155 -43 -299 -6 -54 -32 -66 -123 -58 -52 5
-70 3 -77 -7 -5 -8 -16 -120 -25 -249 -18 -252 -16 -265 31 -290 19 -10 20 -7
21 50 2 94 2 94 24 104 20 9 20 9 -1 13 -19 4 -20 8 -12 76 4 40 13 90 19 112
10 37 12 38 25 20 13 -17 14 -15 14 23 0 49 27 86 79 108 39 16 108 18 146 4
26 -10 108 -15 135 -9 11 3 16 -6 19 -31 l5 -35 5 37 6 37 42 -19 c47 -21 53
-31 99 -164 27 -78 66 -138 79 -124 9 9 -13 110 -76 348 -28 107 -52 203 -52
213 -2 21 -23 22 -31 1 -11 -28 -7 -37 12 -23 10 8 9 4 -5 -11 -11 -14 -29
-54 -39 -89 -23 -85 -42 -101 -119 -101 -46 0 -66 4 -77 18 -10 10 -26 81 -42
181 -14 91 -28 166 -30 169 -2 2 -6 0 -9 -5z"/>
<path d="M6602 3193 c-6 -54 -14 -127 -18 -163 -3 -36 -14 -137 -24 -225 -32
-267 -33 -349 -5 -339 18 7 63 -50 75 -95 6 -21 12 -83 15 -137 3 -55 7 -126
9 -159 8 -105 9 -283 1 -294 -4 -7 -2 -17 3 -24 5 -7 13 -92 17 -191 6 -146 5
-180 -6 -187 -11 -7 -11 -9 2 -9 13 0 17 -19 23 -112 5 -72 16 -137 31 -185
l23 -74 -21 -9 c-21 -8 -20 -9 6 -9 15 -1 30 -2 34 -3 13 -6 -13 517 -47 927
-11 132 -33 467 -50 745 -34 564 -39 640 -50 640 -4 0 -12 -44 -18 -97z"/>
<path d="M7160 3102 c0 -157 23 -403 36 -390 3 4 33 260 34 291 0 18 43 47 70
47 40 0 38 13 -9 51 -22 17 -42 38 -46 47 -4 12 -1 11 16 -4 l22 -19 -14 23
c-8 12 -18 20 -24 18 -5 -2 -27 13 -47 32 l-38 36 0 -132z"/>
<path d="M10680 3169 c0 -8 -4 -50 -10 -94 -5 -44 -19 -277 -30 -518 -11 -240
-25 -513 -30 -605 -5 -92 -10 -232 -10 -312 0 -123 2 -142 14 -130 14 16 54
164 58 218 1 18 8 32 15 32 7 0 13 5 13 10 0 6 -5 10 -11 10 -11 0 -10 9 12
91 12 47 39 55 71 22 13 -14 30 -29 39 -33 12 -7 15 -4 13 18 -2 15 -8 99 -14
187 -6 88 -22 255 -35 370 -13 116 -26 251 -30 300 -10 146 -46 429 -56 440
-6 5 -9 3 -9 -6z"/>
<path d="M8222 3075 c-7 -49 -19 -99 -27 -112 -14 -21 -23 -23 -95 -23 l-79 0
-5 -52 c-18 -165 -29 -300 -34 -434 -7 -141 -6 -150 10 -140 11 6 13 13 7 17
-8 4 -5 16 7 34 10 16 19 33 21 39 1 6 7 39 14 74 10 49 16 62 31 62 16 0 18
9 18 84 0 111 7 141 36 157 21 11 27 10 39 -2 19 -19 51 -110 59 -171 6 -42 5
-48 -10 -48 -13 0 -15 -3 -7 -11 9 -9 21 -6 47 11 41 25 41 23 26 200 -28 325
-33 376 -40 389 -4 7 -12 -26 -18 -74z"/>
<path d="M11816 3149 c-3 -8 -12 -54 -20 -104 -9 -54 -21 -94 -30 -101 -21
-15 -279 -24 -470 -17 -181 7 -187 10 -194 97 -4 47 -10 59 -43 92 -28 27 -40
33 -43 23 -3 -8 -12 -120 -21 -249 -9 -129 -27 -347 -41 -485 -33 -325 -43
-556 -23 -535 22 23 47 107 59 194 6 44 15 85 21 93 9 10 8 13 -1 13 -8 0 -10
13 -6 43 3 23 5 105 5 183 1 136 2 141 24 152 17 8 18 11 5 11 -15 1 -18 11
-18 64 1 76 22 178 44 212 19 29 42 40 104 48 41 5 42 5 42 -25 0 -17 4 -27
10 -23 6 3 10 17 10 31 0 15 4 23 10 19 6 -4 88 -6 183 -5 l173 1 11 -28 11
-28 1 35 c1 24 4 31 10 21 7 -11 9 -11 14 0 3 8 6 9 6 3 1 -7 18 -8 54 -3 65
9 188 10 247 1 36 -6 45 -12 51 -32 6 -23 7 -22 8 8 1 20 5 31 11 27 14 -9
172 -9 199 0 11 3 21 12 21 19 0 14 -125 26 -261 26 -93 0 -104 12 -128 129
-20 96 -27 114 -35 90z"/>
<path d="M7296 2931 c-8 -12 -56 -469 -56 -528 0 -50 12 -55 30 -13 15 37 27
38 33 3 2 -16 5 9 6 53 1 60 5 85 16 94 12 10 13 15 4 21 -10 6 -9 28 5 105
28 148 60 184 190 214 126 30 99 41 -126 55 -60 4 -98 2 -102 -4z"/>
<path d="M8591 2545 c-1 -9 -41 -26 -101 -43 -24 -7 -25 -9 -19 -72 l6 -65 1
63 c2 54 4 62 21 62 13 0 21 -9 25 -27 10 -53 16 -108 18 -151 1 -24 6 -45 11
-49 5 -3 3 -9 -4 -14 -8 -5 -9 -9 -3 -9 6 0 11 -16 12 -35 1 -19 -3 -35 -8
-35 -6 0 -10 -4 -10 -10 0 -5 6 -10 14 -10 9 0 17 -15 21 -40 4 -22 11 -43 16
-46 6 -3 5 -11 -2 -20 -16 -20 5 -18 25 2 13 13 15 37 11 157 -7 194 -14 288
-24 323 -5 16 -10 24 -10 19z"/>
<path d="M8736 2328 c-12 -95 -17 -226 -9 -231 4 -3 20 -3 34 0 21 4 25 9 21
29 -2 13 0 24 4 24 5 0 10 23 11 50 0 28 4 61 7 74 4 16 -3 34 -22 59 -15 20
-30 36 -34 37 -4 0 -9 -19 -12 -42z"/>
</g>
</svg>
