<?xml version="1.0"?><svg width="539" height="692" xmlns="http://www.w3.org/2000/svg">
 <linearGradient y2="1.022929" x2="0.818558" y1="0.159456" x1="0.181445" id="XMLID_7_">
  <stop stop-color="#FFFFFF" offset="0"/>
  <stop stop-color="#9D9FA1" offset="1"/>
 </linearGradient>
 <defs>
  <linearGradient y2="0.082031" x2="0.070313" y1="1" x1="0.992188" id="svg_18">
   <stop offset="0" stop-color="#003f7f"/>
   <stop offset="1" stop-color="#ffc080"/>
  </linearGradient>
  <linearGradient y2="1" x2="1" y1="1" x1="1" id="svg_19">
   <stop offset="0" stop-color="#003f7f"/>
   <stop offset="1" stop-color="#ffc080"/>
  </linearGradient>
 </defs>
 <g>
  <title>Layer 1</title>
  <path id="svg_1" d="m518.900024,563.317017c0,144.909973 -502.899994,144.909973 -502.899994,0c0,-144.911011 112.578995,-262.381989 251.450012,-262.381989s251.449982,117.470978 251.449982,262.381989z" fill="url(#XMLID_7_)"/>
  <g id="svg_2">
   <g id="svg_3">
    <linearGradient y2="0.267553" x2="-0.229343" y1="0.820812" x1="1.229289" id="XMLID_8_">
     <stop stop-color="#971B1E" offset="0"/>
     <stop stop-color="#ED1C24" offset="1"/>
    </linearGradient>
    <path id="svg_4" d="m309.358002,594.822021c0,59.494019 -25.834991,55.245972 -40.890991,55.245972c-15.05101,0 -40.881012,4.248047 -40.881012,-55.245972c0,-59.526978 25.830002,-160.273987 40.881012,-160.273987c15.056,-0.000031 40.890991,100.746948 40.890991,160.273987z" fill="url(#XMLID_8_)"/>
   </g>
  </g>
  <g id="svg_5">
   <g id="svg_6">
    <linearGradient y2="0.022491" x2="0.132621" y1="0.722133" x1="0.867371" id="XMLID_9_">
     <stop stop-color="#971B1E" offset="0"/>
     <stop stop-color="#ED1C24" offset="1"/>
    </linearGradient>
    <path id="svg_7" d="m309.358002,370.803986c0,-23.694 -25.834991,-22.003998 -40.890991,-22.003998c-15.05101,0 -40.881012,-1.688995 -40.881012,22.003998c0,23.714996 25.830002,63.845001 40.881012,63.845001c15.056,-0.000977 40.890991,-40.129974 40.890991,-63.845001z" fill="url(#XMLID_9_)"/>
   </g>
  </g>
  <g id="svg_8">
   <g id="svg_9">
    <g id="svg_10">
     <linearGradient fill="url(#svg_19)" y2="1.024307" x2="0.818552" y1="0.109168" x1="0.181449" id="XMLID_10_">
      <stop fill="url(#svg_19)" stop-color="#FFFFFF" offset="0"/>
      <stop fill="url(#svg_19)" stop-color="#28903A" offset="1"/>
     </linearGradient>
     <path id="svg_11" d="m366.21701,321.316986l-97.263,340.535004l-100.114014,-340.60498c-89.854996,40.014984 -152.838997,133.042999 -152.838997,241.427002c0,144.909973 502.898964,144.909973 502.898964,0c0.000061,-108.321014 -62.911957,-201.304016 -152.682953,-241.357025z" fill="url(#svg_19)"/>
    </g>
   </g>
  </g>
  <g id="svg_12">
   <g id="svg_13">
    <linearGradient y2="0.153737" x2="0.138678" y1="0.84627" x1="0.861324" id="XMLID_11_">
     <stop stop-color="#D6A477" offset="0"/>
     <stop stop-color="#E4C3A8" offset="1"/>
    </linearGradient>
    <ellipse id="svg_14" ry="174.922" rx="167.633" cy="190.965" cx="267.45" fill="url(#XMLID_11_)"/>
   </g>
  </g>
  <g id="svg_15">
   <g id="svg_16">
    <linearGradient y2="0.040605" x2="0.229745" y1="1.054722" x1="0.952616" id="XMLID_12_">
     <stop stop-color="#967348" offset="0"/>
     <stop stop-color="#D6A477" offset="1"/>
    </linearGradient>
    <path id="svg_17" d="m435.083008,256.731995c-23.312012,7.079987 0,-196.574005 -228.531006,-116.109009c-6.216003,0.548004 -15.984009,-20.482994 -64.826996,-14.868996c-6.17601,0.709999 -23.953003,12.519997 -30.142006,13.133995c-19.804001,1.846008 -9.902,-20.302994 -4.056999,-31.973999c2.945999,-6.581993 6.569,-12.953995 10.806999,-19.048996c29.663994,-42.667 89.443001,-71.822001 158.345009,-71.822001c98.444,0 176.626007,43.730001 158.403992,240.518015" fill="url(#XMLID_12_)"/>
   </g>
  </g>
 </g>
</svg>